<svg width="66" height="56" viewBox="0 0 66 56" fill="none" xmlns="http://www.w3.org/2000/svg">
<g clip-path="url(#clip0_1_6)">
<path d="M37.4678 16.87L36.2141 15.87C36.0181 15.7043 35.7675 15.626 35.5166 15.6522C35.2657 15.6784 35.0349 15.807 34.8742 16.01L17.5233 36.83L17.7912 37.14L22.0883 33C21.9451 32.9398 21.8266 32.8291 21.7534 32.6871C21.6802 32.5451 21.657 32.3807 21.6877 32.2227C21.7184 32.0646 21.8011 31.9227 21.9215 31.8218C22.0419 31.7208 22.1923 31.6671 22.3467 31.67C22.4859 31.67 22.6214 31.7166 22.7334 31.803C22.8453 31.8894 22.9278 32.011 22.9688 32.15L28.6344 26.66C28.7211 26.587 28.8292 26.5472 28.9406 26.5472C29.0521 26.5472 29.1601 26.587 29.2469 26.66L29.534 26.88C29.6311 26.9528 29.7508 26.9849 29.8695 26.9701C29.9881 26.9553 30.0972 26.8946 30.1752 26.8L37.5826 18.12C37.6614 18.0339 37.7214 17.931 37.7587 17.8184C37.796 17.7058 37.8097 17.5862 37.7988 17.4676C37.7879 17.349 37.7527 17.2343 37.6956 17.1312C37.6384 17.028 37.5608 16.939 37.4678 16.87Z" fill="#303030"/>
<path d="M45.6216 22.73C41.8246 25.553 37.571 27.6364 33.0654 28.88C28.5936 30.0683 24.0178 30.7786 19.4086 31C19.5014 31.7102 19.6683 32.4077 19.9062 33.08C22.5093 35.54 42.1093 31.34 45.9375 26.48C46.7509 25.47 45.6216 22.73 45.6216 22.73ZM22.3467 33C22.2179 33 22.0921 32.9601 21.9851 32.8854C21.8781 32.8107 21.7947 32.7045 21.7454 32.5802C21.6962 32.456 21.6833 32.3192 21.7084 32.1873C21.7335 32.0554 21.7955 31.9342 21.8865 31.8391C21.9775 31.744 22.0935 31.6793 22.2197 31.653C22.3459 31.6268 22.4768 31.6403 22.5957 31.6917C22.7146 31.7432 22.8163 31.8304 22.8878 31.9422C22.9593 32.054 22.9974 32.1855 22.9974 32.32C22.9987 32.4097 22.9828 32.4987 22.9505 32.5818C22.9183 32.6649 22.8704 32.7404 22.8097 32.8038C22.749 32.8672 22.6768 32.9173 22.5972 32.951C22.5177 32.9847 22.4325 33.0013 22.3467 33Z" fill="#303030"/>
<path d="M3.82878 21.2899L3.9819 20.5999L6.47018 21.1899C6.67547 21.5861 6.8024 22.0214 6.84343 22.4699C6.89092 22.945 6.86181 23.425 6.75729 23.8899C6.63341 24.5352 6.3496 25.1352 5.93425 25.6299C5.53907 26.097 5.02954 26.4428 4.46042 26.6299C3.87385 26.8189 3.24997 26.8431 2.65163 26.6999C2.05197 26.5646 1.49924 26.2603 1.05339 25.8199C0.614367 25.3969 0.299118 24.8526 0.144207 24.2499C-0.0276427 23.5954 -0.0276427 22.9045 0.144207 22.2499C0.247067 21.76 0.431725 21.2929 0.689715 20.8699C0.933891 20.4853 1.26187 20.1665 1.64675 19.9399L1.99128 20.4899C1.66139 20.7016 1.37822 20.9839 1.16046 21.3183C0.9427 21.6527 0.795301 22.0316 0.727996 22.4299C0.609312 22.9473 0.619195 23.4877 0.756707 23.9999C0.885303 24.4863 1.14038 24.9259 1.49362 25.2699C1.8567 25.6367 2.31096 25.8896 2.80475 25.9999C3.28358 26.1404 3.79018 26.1404 4.26901 25.9999C4.72771 25.8417 5.13969 25.5628 5.4653 25.1899C5.79992 24.7873 6.03052 24.3019 6.13522 23.7799C6.29268 23.1468 6.25245 22.4776 6.02038 21.8699L3.82878 21.2899Z" fill="#303030"/>
<path d="M9.24495 14.9999L7.01506 18.1099L7.97209 19.8999L7.53186 20.5199L3.99084 13.7699L4.40237 13.1799L11.6088 14.7999L11.159 15.4199L9.24495 14.9999ZM8.61331 14.8399L4.78518 13.9399L6.69924 17.5299L8.61331 14.8399Z" fill="#303030"/>
<path d="M8.61328 8.5501L9.1875 8.1001L12.8338 13.2001L15.8389 10.8501L16.2025 11.3601L12.6328 14.1501L8.61328 8.5501Z" fill="#303030"/>
<path d="M14.6426 4.38008L15.2838 4.08008L17.8104 9.86008L21.227 8.24008L21.4758 8.82008L17.418 10.7501L14.6426 4.38008Z" fill="#303030"/>
<path d="M27.2563 6.68003L27.3998 7.31003L22.7869 8.44003L21.2557 1.62003L25.7346 0.530029L25.8686 1.15003L22.0404 2.08003L22.586 4.50003L25.9547 3.67003L26.0983 4.29003L22.7199 5.11003L23.2942 7.64003L27.2563 6.68003Z" fill="#303030"/>
<path d="M33.831 6.92997L32.2328 4.72997C32.0543 4.74029 31.8754 4.74029 31.6969 4.72997L29.8976 4.78997L29.9646 7.00997H29.2564L29.0363 0.00996866L31.582 -3.1339e-05C32.3018 -0.0694894 33.0215 0.132721 33.6109 0.569969C33.8593 0.778962 34.059 1.04418 34.1949 1.3456C34.3309 1.64702 34.3995 1.97678 34.3957 2.30997C34.4236 2.80416 34.2996 3.29473 34.0416 3.70997C33.7666 4.10853 33.378 4.40603 32.9314 4.55997L34.6062 6.89997L33.831 6.92997ZM33.1611 3.63997C33.3331 3.47531 33.4666 3.27154 33.5512 3.04439C33.6359 2.81725 33.6694 2.57281 33.6492 2.32997C33.6541 2.08584 33.6059 1.84374 33.5081 1.62198C33.4102 1.40022 33.2654 1.20461 33.0846 1.04997C32.6435 0.737448 32.113 0.592707 31.582 0.639969L29.7637 0.709969L29.8785 4.20997L31.6586 4.14997C32.2014 4.17096 32.7337 3.99026 33.1611 3.63997Z" fill="#303030"/>
<path d="M38.8938 5.07L38.5492 7.46L37.8506 7.35L38.2047 5L36.2236 0L36.9701 0.12L38.6641 4.38L41.5352 0.85L42.2051 1L38.8938 5.07Z" fill="#303030"/>
<path d="M48.3588 4.64993L49.1914 5.77993L48.8277 6.07993L47.9951 4.91993L47.4687 6.22993L47.0668 6.04993L47.6027 4.73993L46.2246 4.92993V4.44993L47.5836 4.28993L46.7414 3.15993L47.1146 2.85993L47.8516 3.99993L48.3684 2.67993L48.7799 2.85993L48.2918 4.19993L49.6699 3.99993V4.48993L48.3588 4.64993Z" fill="#303030"/>
<path d="M51.5553 12.7099C51.3293 12.3458 51.1883 11.9314 51.1437 11.4999L51.7084 11.2399C51.7507 11.6363 51.8748 12.0184 52.0721 12.3599C52.2858 12.7428 52.5648 13.0817 52.8951 13.3599C53.2362 13.7012 53.6715 13.9216 54.1392 13.9899C54.3082 14.0063 54.4785 13.9793 54.6353 13.9114C54.7921 13.8434 54.9306 13.7365 55.0389 13.5999C55.1182 13.5084 55.1787 13.4008 55.2166 13.2838C55.2545 13.1669 55.2689 13.043 55.259 12.9199C55.2273 12.6762 55.1492 12.4416 55.0293 12.2299C54.8494 11.923 54.6546 11.6259 54.4455 11.3399C54.1907 10.9911 53.9604 10.6235 53.7564 10.2399C53.6005 9.95284 53.515 9.6299 53.5076 9.29992C53.5069 8.92934 53.6403 8.57218 53.8808 8.29992C54.0894 8.03604 54.3646 7.83857 54.6752 7.72992C55.0222 7.62518 55.3905 7.62518 55.7375 7.72992C56.1846 7.88269 56.5979 8.12751 56.9529 8.44992C57.2476 8.70599 57.5083 9.00192 57.7281 9.32992C57.9314 9.63408 58.0835 9.97227 58.1779 10.3299L57.6324 10.6299C57.5373 10.2966 57.3954 9.97979 57.2113 9.68992C57.028 9.43106 56.8123 9.199 56.5701 8.99992C56.234 8.66016 55.8001 8.44575 55.3355 8.38992C55.1648 8.375 54.9932 8.40466 54.8362 8.47623C54.6792 8.5478 54.5416 8.65903 54.4359 8.79992C54.3545 8.89 54.2927 8.99741 54.2547 9.11477C54.2167 9.23214 54.2035 9.35669 54.2158 9.47992C54.2382 9.73209 54.3169 9.97526 54.4455 10.1899C54.5795 10.4199 54.7709 10.7199 55.0293 11.0799C55.2854 11.4207 55.5158 11.7818 55.7184 12.1599C55.8776 12.4461 55.9664 12.7691 55.9767 13.0999C55.9774 13.4705 55.8441 13.8277 55.6035 14.0999C55.3942 14.3674 55.1148 14.5655 54.7996 14.6699C54.4532 14.7792 54.0837 14.7792 53.7373 14.6699C53.2871 14.5176 52.8706 14.2728 52.5123 13.9499C52.126 13.5986 51.802 13.1788 51.5553 12.7099Z" fill="#303030"/>
<path d="M61.183 14.17L59.8336 12.17L60.3313 11.8L63.4416 16.44L62.944 16.81L61.5946 14.81L56.5989 18.46L56.1969 17.85L61.183 14.17Z" fill="#303030"/>
<path d="M59.0392 22.39C59.2101 21.7856 59.542 21.2445 59.9963 20.83C60.4406 20.4141 60.982 20.1279 61.5658 20C62.161 19.8572 62.7817 19.8814 63.365 20.07C63.9281 20.2645 64.4328 20.6092 64.8293 21.07C65.2415 21.5656 65.5221 22.1656 65.6427 22.81C65.8013 23.4426 65.8013 24.1073 65.6427 24.74C65.4672 25.3421 65.136 25.8819 64.6857 26.3C64.2291 26.727 63.6744 27.0233 63.0757 27.16C62.477 27.2967 61.8546 27.2691 61.2691 27.08C60.7017 26.8949 60.1948 26.5487 59.8049 26.08C59.3944 25.587 59.1141 24.9907 58.9914 24.35C58.8452 23.7033 58.8617 23.028 59.0392 22.39ZM60.2929 25.57C60.6125 25.9502 61.0265 26.2306 61.4892 26.38C61.9661 26.5245 62.4701 26.5417 62.955 26.4298C63.4399 26.318 63.8902 26.0808 64.2646 25.74C64.6179 25.4004 64.8787 24.9691 65.0207 24.49C65.1541 23.9841 65.1672 23.4517 65.0588 22.9393C64.9504 22.4269 64.7237 21.95 64.3986 21.55C64.065 21.1679 63.6383 20.8879 63.164 20.74C62.6811 20.606 62.1731 20.606 61.6902 20.74C61.2029 20.8377 60.7519 21.0768 60.3886 21.43C60.0322 21.7708 59.7709 22.2062 59.6326 22.69C59.5027 23.1977 59.5027 23.7322 59.6326 24.24C59.7374 24.7361 59.9651 25.1947 60.2929 25.57Z" fill="#303030"/>
<path d="M58.3119 33.9999L60.7906 32.9999C60.7906 32.8199 60.848 32.6399 60.8959 32.4499L61.3648 30.6399L59.3359 30.0899L59.5178 29.3799L65.9873 31.1899L65.3365 33.7199C65.1899 34.4581 64.7963 35.1176 64.2264 35.5799C63.9645 35.7699 63.664 35.8941 63.3486 35.9427C63.0331 35.9912 62.7112 35.9629 62.408 35.8599C61.9462 35.7552 61.5323 35.4891 61.2348 35.1055C60.9372 34.7218 60.7738 34.2437 60.7715 33.7499L58.1301 34.7499L58.3119 33.9999ZM61.518 34.2799C61.6301 34.4924 61.7821 34.679 61.9651 34.8286C62.148 34.9781 62.3579 35.0875 62.5823 35.1501C62.8067 35.2126 63.0409 35.2272 63.2708 35.1928C63.5007 35.1584 63.7215 35.0758 63.9201 34.9499C64.3425 34.5954 64.6308 34.0957 64.7336 33.5399L65.193 31.7399L61.9486 30.8299L61.4892 32.6299C61.3127 33.1663 61.3228 33.7506 61.518 34.2799Z" fill="#303030"/>
<path d="M54.8761 40.4401L54.3881 40.0501L57.2592 36.1001L62.5994 40.3301L59.824 44.1601L59.3359 43.7701L61.6806 40.5401L59.7666 39.0301L57.6707 41.9201L57.1922 41.5401L59.3359 38.6501L57.3549 37.0801L54.8761 40.4401Z" fill="#303030"/>
<path d="M52.6367 48.4099L51.2682 48.4899V48.0099L52.6367 47.9999L51.8998 46.8099L52.2731 46.5599L53.0004 47.7599L53.5938 46.4199L54.0053 46.6499L53.3545 47.9099L54.7231 47.8299V48.3199H53.3354L54.0723 49.5099L53.699 49.7599L52.9717 48.5599L52.3401 49.8599L51.9381 49.6199L52.6367 48.4099Z" fill="#303030"/>
<path d="M40.1953 47.6099L41.3533 48.2799C41.5474 47.8902 41.8184 47.5479 42.1483 47.2756C42.4782 47.0033 42.8596 46.8071 43.2674 46.6999C43.6477 46.576 44.0478 46.5318 44.4445 46.5699C44.7888 46.5975 45.1194 46.7219 45.4015 46.9299C45.6566 47.1308 45.8442 47.4108 45.9375 47.7299C46.0528 48.1247 46.0325 48.5491 45.8801 48.9299C45.6399 49.4473 45.3162 49.9175 44.923 50.3199C45.2386 50.4971 45.5312 50.7155 45.7939 50.9699C45.9744 51.1648 46.1088 51.4011 46.1863 51.6599C46.2354 51.8617 46.2384 52.0726 46.1952 52.2759C46.152 52.4791 46.0637 52.6688 45.9375 52.8299C45.682 53.2146 45.3008 53.4884 44.8656 53.5999C44.4835 53.7522 44.061 53.7522 43.6789 53.5999C43.509 53.5235 43.3583 53.407 43.2387 53.2595C43.1192 53.1121 43.034 52.9376 42.9898 52.7499C42.8895 52.4198 42.9134 52.0622 43.0568 51.7499C43.2765 51.2953 43.564 50.8801 43.9086 50.5199L41.6021 49.1799C41.5141 49.6508 41.4948 50.1329 41.5447 50.6099H40.9609C40.9216 50.0225 40.9865 49.4326 41.1523 48.8699L39.9465 48.1699L40.1953 47.6099ZM41.8605 48.6099L44.3967 50.0799C44.729 49.7483 45.0042 49.3592 45.2101 48.9299C45.3153 48.64 45.3153 48.3199 45.2101 48.0299C45.1667 47.8567 45.0828 47.6974 44.9658 47.5665C44.8489 47.4356 44.7026 47.3371 44.5402 47.2799C44.1429 47.1397 43.7125 47.1397 43.3152 47.2799C42.9906 47.3694 42.6886 47.5322 42.4307 47.7568C42.1727 47.9814 41.965 48.2624 41.8223 48.5799L41.8605 48.6099ZM45.459 52.6099C45.5215 52.4994 45.5607 52.3762 45.5739 52.2486C45.5871 52.1209 45.574 51.9918 45.5355 51.8699C45.4769 51.6724 45.3716 51.4936 45.2293 51.3499C44.9857 51.1352 44.7191 50.9506 44.4349 50.7999C44.1448 51.0997 43.8909 51.4356 43.6789 51.7999C43.5632 52.0271 43.5358 52.2921 43.6023 52.5399C43.6327 52.6543 43.6859 52.7607 43.7585 52.8521C43.8311 52.9434 43.9214 53.0177 44.0234 53.0699C44.2671 53.1659 44.5358 53.1659 44.7795 53.0699C45.0397 52.9974 45.2669 52.8309 45.4207 52.5999L45.459 52.6099Z" fill="#303030"/>
<path d="M28.5291 55.3201L28.6631 48.3201H29.3426L29.2373 53.9201L31.9553 49.2601H32.2902L34.836 54.0001L34.9317 48.4301H35.6111L35.4867 55.4301H34.9029L32.0893 50.2001L29.1129 55.3301L28.5291 55.3201Z" fill="#303030"/>
<path d="M25.1986 48.0001C25.6362 48.4359 25.9494 48.9902 26.1032 49.6012C26.257 50.2121 26.2453 50.8557 26.0695 51.4601C25.9123 52.079 25.5982 52.6421 25.1603 53.0901C24.7348 53.5271 24.2013 53.8318 23.6195 53.9701C23.0058 54.1148 22.3669 54.0941 21.7629 53.9101C21.1609 53.7565 20.6071 53.443 20.1551 53.0001C19.7239 52.5698 19.4158 52.0228 19.265 51.4201C19.1178 50.7971 19.1287 50.1447 19.2965 49.5274C19.4644 48.9101 19.7834 48.3492 20.222 47.9001C20.64 47.4642 21.1622 47.1534 21.7342 47.0001C22.3447 46.8558 22.9804 46.8765 23.5812 47.0601C24.1894 47.2212 24.7469 47.5452 25.1986 48.0001ZM21.9351 47.6501C21.467 47.764 21.0391 48.0135 20.7006 48.3701C20.348 48.737 20.0968 49.1965 19.9732 49.7001C19.8398 50.2006 19.8398 50.7296 19.9732 51.2301C20.0861 51.717 20.3283 52.1607 20.6719 52.5101C21.0322 52.8783 21.4771 53.1435 21.9638 53.2801C22.4505 53.4096 22.9605 53.4096 23.4472 53.2801C23.9158 53.1597 24.3452 52.9112 24.6914 52.5601C25.042 52.1917 25.293 51.7328 25.4187 51.2301C25.5525 50.7263 25.5525 50.1939 25.4187 49.6901C25.2962 49.205 25.0517 48.7631 24.7105 48.4101C24.3483 48.0414 23.8993 47.7792 23.409 47.6501C22.9267 47.5108 22.4174 47.5108 21.9351 47.6501Z" fill="#303030"/>
<path d="M14.6904 43L14.9488 45.75C15.113 45.8233 15.2727 45.9068 15.4273 46L16.9873 46.94L18.04 45L18.6621 45.37L15.3125 51.4L13.1304 50.09C12.4855 49.7515 11.9767 49.1844 11.6949 48.49C11.5909 48.1772 11.5558 47.8439 11.5922 47.5149C11.6287 47.1859 11.7357 46.8698 11.9054 46.59C12.1279 46.1518 12.4805 45.8008 12.9103 45.59C13.3468 45.4011 13.8296 45.3626 14.2885 45.48L14.0109 42.54L14.6904 43ZM13.5994 46.16C13.3746 46.219 13.1635 46.3247 12.9788 46.4708C12.794 46.617 12.6394 46.8006 12.5241 47.0107C12.4088 47.2207 12.3353 47.4529 12.3079 47.6934C12.2806 47.9338 12.2999 48.1776 12.3648 48.41C12.5892 48.9276 12.978 49.3481 13.4654 49.6L15.0062 50.53L16.681 47.53L15.1402 46.6C14.6973 46.2533 14.1521 46.0799 13.5994 46.11V46.16Z" fill="#303030"/>
<path d="M9.0248 38.3101L9.45547 37.8601L12.7572 41.4101L7.97207 46.2901L4.78516 42.8501L5.22539 42.4001L7.93379 45.3101L9.57031 43.5801L7.19687 41.0001L7.65625 40.5401L10.0775 43.1401L11.8576 41.3301L9.0248 38.3101Z" fill="#303030"/>
<path d="M1.91407 34.38L2.14376 33L2.59357 33.07L2.33517 34.49L3.60802 34L3.76115 34.44L2.46915 34.9L3.53146 35.84L3.22521 36.2L2.20118 35.2L1.96193 36.62L1.50255 36.53L1.77052 35.11L0.488098 35.59L0.344543 35.2L1.62697 34.73L0.564661 33.8L0.880481 33.44L1.91407 34.38Z" fill="#303030"/>
</g>
<defs>
<clipPath id="clip0_1_6">
<rect width="65.9682" height="55.46" fill="white"/>
</clipPath>
</defs>
</svg>
